<?xml version="1.0" encoding="UTF-8"?>
<svg id="Layer_1" xmlns="http://www.w3.org/2000/svg" version="1.1" viewBox="0 0 308.9 66">
  <!-- Generator: Adobe Illustrator 30.0.0, SVG Export Plug-In . SVG Version: 2.1.1 Build 123)  -->
  <defs>
    <style>
      .st0 {
        fill: #ff0;
      }
    </style>
  </defs>
  <polygon class="st0" points="54.9 .4 54.1 1.1 54.1 25 53.3 25.8 47.5 25.8 28.6 25.8 22.8 25.8 22 25 22 1.1 21.3 .4 7.2 .4 6.4 1.1 6.4 33.1 6.4 34.3 6.4 65.1 7.2 65.8 21.3 65.8 22 65.1 22 42.4 22.8 41.6 28.6 41.6 47.5 41.6 53.3 41.6 54.1 42.4 54.1 65.1 54.9 65.8 69 65.8 69.8 65.1 69.8 34.3 69.8 33.1 69.8 1.1 69 .4 54.9 .4"/>
  <g>
    <path class="st0" d="M176.4,49.8l-.8-.8v-.5c-.1,0,0-47.4,0-47.4l-.8-.8h-14.6l-.8.8s0,50.1,0,51.3c0,3.9.9,5.2,1.2,6,2,5,7.5,7.5,12.6,7.5s44.4,0,44.4,0l.7-.7v-14.7l-.7-.7h-41.4Z"/>
    <path class="st0" d="M268.2.5h-14.5c-18,0-32.8,14.7-32.8,32.8s14.7,32.8,32.8,32.8h14.5c18,0,32.8-14.7,32.8-32.8S286.2.5,268.2.5M266.7,51.3h-11.5c-9.9,0-18-8.1-18-18s8.1-18,18-18h11.5c9.9,0,18,8.1,18,18s-8.1,18-18,18"/>
    <path class="st0" d="M131.6,12.1C127.8,4.8,122.6.2,115.2.3h0s0,0-.2,0h0c0,0-.1,0-.2,0h0c-7.5,0-12.7,4.5-16.5,11.8-7.3,14-15.8,35.6-21.6,50.4-.2.6-1.6,3.5-.2,3.5h14.6l1.2-.7,5.7-13.3h33.8l5.7,13.3,1.2.7h14.6c1.5,0,0-2.9-.2-3.5-5.8-14.9-14.2-36.4-21.6-50.4M104.7,35.8s6.3-15.6,7.9-19.2c0-.2.1-.3.2-.5,0-.1.1-.2.1-.2,0,0,0,0,0,0,.5-.6,1.2-1,2-1,.8,0,1.5.4,2,1,0,0,0,0,0,0,0,0,0,.1.1.2,0,.2.2.3.2.5,1.6,3.5,7.9,19.2,7.9,19.2h-20.7Z"/>
    <path class="st0" d="M303.5,3h-2.6v5.7h1.1v-2.1h1.4c.5,0,.7.2.7.7v1.5h1.1v-1.8c0-.3,0-.6-.3-.7-.2-.1-.5-.2-.9-.2.4,0,.7-.2.9-.5s.3-.6.3-1-.2-.9-.5-1.1c-.3-.3-.8-.4-1.4-.4M304,5.4c-.2.1-.5.2-.8.2h-1.1v-1.5h1.1c.4,0,.7,0,.9.2.2.1.3.3.3.6s0,.5-.3.6"/>
    <path class="st0" d="M308.1,3c-.5-.9-1.3-1.6-2.2-2.2-.9-.5-1.9-.8-3-.8s-2.1.3-3,.8c-.9.5-1.6,1.3-2.2,2.2-.5.9-.8,1.9-.8,3s.3,2.1.8,3c.5.9,1.3,1.6,2.2,2.2.9.5,1.9.8,3,.8s2.1-.3,3-.8c.9-.5,1.6-1.3,2.2-2.2.5-.9.8-1.9.8-3s-.3-2.1-.8-3M307.1,8.4c-.4.7-1,1.3-1.8,1.8-.7.4-1.5.7-2.4.7s-1.7-.2-2.4-.7c-.7-.4-1.3-1-1.8-1.8s-.6-1.6-.6-2.4.2-1.7.6-2.4c.4-.7,1-1.3,1.8-1.8.7-.4,1.5-.7,2.4-.7s1.7.2,2.4.7c.7.4,1.3,1,1.8,1.8.4.7.6,1.6.6,2.4s-.2,1.7-.6,2.4"/>
  </g>
</svg>